<svg width="42" height="50" viewBox="0 0 42 50" fill="none" xmlns="http://www.w3.org/2000/svg">
<path d="M35.7342 8.84375C35.7784 6.59168 34.9459 4.41052 33.4125 2.76051C31.8791 1.11051 29.7647 0.120724 27.5155 2.26872e-06C26.0181 -0.00116094 24.5545 0.444995 23.3123 1.28125C21.7394 0.443352 19.9852 0.00345304 18.203 2.26872e-06C15.6772 0.0821205 13.2412 0.956012 11.2393 2.49814C9.2373 4.04027 7.77067 6.17262 7.04672 8.59375C5.15649 9.15978 3.50713 10.3362 2.35652 11.9392C1.20591 13.5421 0.618921 15.4812 0.687341 17.4531C0.57953 19.7484 1.38264 21.9933 2.92187 23.6994C4.46111 25.4054 6.61188 26.4344 8.90609 26.5625H13.6405L8.07797 36.6719C8.02862 36.7575 8.00174 36.8543 7.99984 36.9531C7.98702 36.9881 7.9817 37.0254 7.98422 37.0625L7.34359 43.4688V43.5313L6.81234 48.8281C6.79717 48.9795 6.82778 49.1318 6.90022 49.2656C6.97265 49.3993 7.08356 49.5082 7.21859 49.5781C7.35339 49.649 7.50533 49.6807 7.6572 49.6696C7.80908 49.6586 7.95484 49.6052 8.07797 49.5156L12.2967 46.2188L17.3592 42.25C17.4902 42.1893 17.5954 42.0841 17.6561 41.9531L26.1405 26.5625H33.0936C35.3878 26.4344 37.5386 25.4054 39.0778 23.6994C40.617 21.9933 41.4201 19.7484 41.3123 17.4531C41.3597 15.6228 40.8523 13.821 39.8568 12.2845C38.8612 10.7479 37.4241 9.54845 35.7342 8.84375V8.84375ZM15.4373 26.5625H18.9998L12.5623 38.25L9.82797 36.75L15.4373 26.5625ZM8.54672 47.1563L8.81234 44.4313C9.52103 44.6073 10.1709 44.9667 10.6967 45.4734L8.54672 47.1563ZM11.9373 44.5L11.9217 44.5125C11.1244 43.6833 10.095 43.1147 8.96859 42.8813V42.8594L9.42172 38.2969L12.453 39.9844C12.4686 39.9844 12.4686 40 12.4842 40C12.4998 40 12.4998 40.0156 12.5155 40.0156L15.5467 41.6875L11.9373 44.5ZM16.6717 40.5156H16.6561L13.9373 39L20.7811 26.5625H24.3436L16.6717 40.5156ZM33.0936 25H8.90609C7.02645 24.8718 5.27322 24.0074 4.02701 22.5945C2.7808 21.1815 2.1422 19.3341 2.24984 17.4531C2.1756 15.7836 2.67435 14.1389 3.66337 12.7917C4.65239 11.4446 6.07222 10.4761 7.68734 10.0469H7.71859C9.33333 10.1691 10.8356 10.9203 11.9021 12.1388C12.9687 13.3573 13.5144 14.9458 13.4217 16.5625C13.4217 16.7697 13.504 16.9684 13.6505 17.1149C13.7971 17.2614 13.9958 17.3438 14.203 17.3438C14.4102 17.3438 14.6089 17.2614 14.7554 17.1149C14.9019 16.9684 14.9842 16.7697 14.9842 16.5625C15.0527 14.7056 14.4609 12.8845 13.3138 11.4228C12.1666 9.96096 10.5385 8.95308 8.71859 8.57813C9.40406 6.58648 10.6776 4.84963 12.371 3.59703C14.0644 2.34443 16.0979 1.63502 18.203 1.5625C19.845 1.56208 21.4575 1.99892 22.8748 2.82813C22.8905 2.84375 22.9061 2.84375 22.9217 2.85938C23.6725 3.3838 24.3079 4.05637 24.7889 4.83566C25.2699 5.61494 25.5863 6.48445 25.7186 7.39063C25.7342 7.46875 25.7342 7.53125 25.7498 7.60938C25.7725 7.79727 25.8627 7.97053 26.0035 8.09698C26.1443 8.22343 26.3262 8.29446 26.5155 8.29688H26.6092C26.8151 8.26915 27.0021 8.16225 27.1305 7.99887C27.2589 7.83549 27.3185 7.62851 27.2967 7.42188C27.2991 7.39985 27.2935 7.37771 27.2811 7.35938C27.0555 5.40978 26.1346 3.60685 24.6873 2.28125C25.5563 1.8121 26.5279 1.56519 27.5155 1.5625C29.3209 1.67901 31.0133 2.48216 32.2453 3.80712C33.4773 5.13208 34.1554 6.87834 34.1405 8.6875C33.2392 8.78585 32.3702 9.07909 31.5936 9.54688C31.1042 9.81425 30.6523 10.1453 30.2498 10.5313C29.5909 11.1536 29.0415 11.8826 28.6248 12.6875C28.5764 12.7783 28.5468 12.8781 28.5379 12.9806C28.529 13.0832 28.541 13.1865 28.5731 13.2844C28.6052 13.3822 28.6568 13.4725 28.7248 13.5498C28.7928 13.6272 28.8757 13.69 28.9686 13.7344C29.0734 13.7942 29.1917 13.8265 29.3123 13.8281C29.4571 13.8299 29.5995 13.7913 29.7237 13.7169C29.8479 13.6424 29.9489 13.5348 30.0155 13.4063C30.358 12.7315 30.8245 12.1273 31.3905 11.625C31.7708 11.2588 32.209 10.9579 32.6873 10.7344C33.3424 10.4033 34.0629 10.2218 34.7967 10.2031C34.8123 10.1875 34.8123 10.1875 34.828 10.2031C36.3137 10.7297 37.5924 11.7169 38.4777 13.0211C39.3631 14.3252 39.8088 15.878 39.7498 17.4531C39.8575 19.3341 39.2189 21.1815 37.9727 22.5945C36.7265 24.0074 34.9732 24.8718 33.0936 25V25ZM32.2342 16.5C32.2797 16.3712 32.2907 16.2328 32.266 16.0984C32.2414 15.9641 32.1819 15.8386 32.0936 15.7344C32.0063 15.6222 31.8861 15.5403 31.7498 15.5C31.5508 15.4379 31.3355 15.4553 31.1491 15.5485C30.9626 15.6417 30.8196 15.8036 30.7498 16C30.4526 16.8899 30.3358 17.8301 30.4061 18.7656C30.4061 18.7698 30.4044 18.7737 30.4015 18.7767C30.3986 18.7796 30.3946 18.7813 30.3905 18.7813C30.3748 18.8125 30.3748 18.8281 30.3592 18.8438L30.4061 18.8125C30.4525 19.7312 30.7034 20.6281 31.1405 21.4375C31.2058 21.5637 31.3044 21.6697 31.4256 21.744C31.5467 21.8184 31.6858 21.8583 31.828 21.8594C31.9539 21.8599 32.0777 21.8276 32.1873 21.7656C32.2786 21.7195 32.3597 21.6555 32.4258 21.5775C32.4919 21.4995 32.5417 21.409 32.5723 21.3114C32.6029 21.2139 32.6136 21.1111 32.6039 21.0093C32.5941 20.9075 32.564 20.8087 32.5155 20.7188C32.1874 20.0706 31.9934 19.3629 31.945 18.638C31.8967 17.9132 31.9951 17.186 32.2342 16.5V16.5ZM11.953 19.7188C11.2608 19.9396 10.5306 20.0161 9.80767 19.9435C9.08472 19.871 8.38434 19.6509 7.74984 19.2969C7.65961 19.2474 7.5605 19.2162 7.45819 19.2051C7.35587 19.194 7.25238 19.2033 7.15365 19.2323C7.05492 19.2614 6.9629 19.3096 6.88288 19.3743C6.80285 19.439 6.7364 19.5189 6.68734 19.6094C6.63844 19.7005 6.60813 19.8005 6.59817 19.9035C6.58821 20.0064 6.5988 20.1104 6.62933 20.2092C6.65985 20.3081 6.7097 20.3999 6.77599 20.4793C6.84228 20.5587 6.92368 20.6242 7.01547 20.6719C8.04596 21.2343 9.20087 21.5297 10.3748 21.5313C11.0754 21.5316 11.7715 21.4209 12.4373 21.2031C12.5356 21.1725 12.6267 21.1226 12.7054 21.0561C12.784 20.9897 12.8485 20.9083 12.8951 20.8165C12.9417 20.7247 12.9695 20.6246 12.9767 20.5219C12.984 20.4192 12.9706 20.3162 12.9373 20.2188C12.873 20.022 12.7332 19.8588 12.5486 19.7651C12.364 19.6713 12.1498 19.6547 11.953 19.7188V19.7188ZM25.3748 18.2188C25.0028 17.844 24.5886 17.5137 24.1405 17.2344C23.6776 16.9352 23.1855 16.6839 22.6717 16.4844C22.1982 16.2965 21.7057 16.1603 21.203 16.0781C20.926 16.0161 20.643 15.9847 20.3592 15.9844C20.2436 15.9215 20.1137 15.8899 19.9821 15.8926C19.8506 15.8954 19.7221 15.9324 19.6092 16H19.5936C19.5534 15.9843 19.5088 15.9843 19.4686 16C18.5966 16.0645 17.7464 16.3036 16.9686 16.7031C16.7996 16.8048 16.6753 16.9667 16.6207 17.1563C16.5661 17.3458 16.5852 17.549 16.6742 17.7251C16.7632 17.9011 16.9155 18.0369 17.1005 18.1053C17.2856 18.1737 17.4896 18.1696 17.6717 18.0938C17.9298 17.9551 18.2022 17.8451 18.4842 17.7656H18.4998C19.111 17.576 19.7521 17.5018 20.3905 17.5469C20.9804 17.5854 21.5605 17.7173 22.1092 17.9375C22.5609 18.1111 22.9908 18.3366 23.3905 18.6094C23.8299 18.9057 24.2336 19.2517 24.5936 19.6406C25.0487 20.1315 25.4326 20.6837 25.7342 21.2813C25.7986 21.4127 25.8987 21.5235 26.023 21.6008C26.1474 21.6782 26.2909 21.719 26.4373 21.7188C26.5627 21.7154 26.6857 21.6833 26.7967 21.625C26.8875 21.5784 26.9681 21.5141 27.0339 21.4361C27.0997 21.358 27.1492 21.2676 27.1798 21.1702C27.2103 21.0728 27.2212 20.9703 27.2117 20.8687C27.2023 20.767 27.1728 20.6683 27.1248 20.5781C26.6868 19.6937 26.0941 18.8946 25.3748 18.2188V18.2188ZM20.3748 6.6875C20.5326 6.57951 20.6453 6.4174 20.6916 6.23189C20.7378 6.04638 20.7145 5.85035 20.6259 5.68091C20.5373 5.51147 20.3897 5.38039 20.211 5.31249C20.0322 5.2446 19.8348 5.2446 19.6561 5.3125C19.0079 5.64068 18.3003 5.83473 17.5754 5.88306C16.8505 5.93138 16.1233 5.83299 15.4373 5.59375C15.3399 5.55929 15.2366 5.54449 15.1334 5.55023C15.0302 5.55596 14.9292 5.58211 14.8362 5.62716C14.7432 5.67221 14.6601 5.73527 14.5916 5.81268C14.5231 5.89009 14.4707 5.98031 14.4373 6.07813C14.3768 6.27713 14.395 6.49176 14.488 6.6778C14.581 6.86384 14.7418 7.00712 14.9373 7.07813C15.6836 7.3242 16.4641 7.45076 17.2498 7.45313C18.3387 7.45948 19.4122 7.19647 20.3748 6.6875V6.6875Z" fill="white"/>
</svg>
