<svg width="16" height="18" viewBox="0 0 16 18" xmlns="http://www.w3.org/2000/svg">
<path d="M15.0312 4.78125C15.1249 4.875 15.2187 4.99554 15.3124 5.14286H10.5714V0.401786C10.7187 0.495536 10.8392 0.589286 10.933 0.683036L15.0312 4.78125ZM10.2499 6.42857H15.7142V17.0357C15.7142 17.3036 15.6205 17.5312 15.433 17.7188C15.2455 17.9062 15.0178 18 14.7499 18H1.24993C0.982073 18 0.754395 17.9062 0.566895 17.7188C0.379395 17.5312 0.285645 17.3036 0.285645 17.0357V0.964286C0.285645 0.696429 0.379395 0.46875 0.566895 0.28125C0.754395 0.09375 0.982073 0 1.24993 0H9.28564V5.46429C9.28564 5.73214 9.37939 5.95982 9.56689 6.14732C9.75439 6.33482 9.98207 6.42857 10.2499 6.42857ZM11.8571 13.8214V13.1786C11.8571 13.0848 11.8269 13.0078 11.7667 12.9475C11.7064 12.8873 11.6294 12.8571 11.5356 12.8571H4.46422C4.37047 12.8571 4.29346 12.8873 4.23319 12.9475C4.17292 13.0078 4.14279 13.0848 4.14279 13.1786V13.8214C4.14279 13.9152 4.17292 13.9922 4.23319 14.0525C4.29346 14.1127 4.37047 14.1429 4.46422 14.1429H11.5356C11.6294 14.1429 11.7064 14.1127 11.7667 14.0525C11.8269 13.9922 11.8571 13.9152 11.8571 13.8214ZM11.8571 11.25V10.6071C11.8571 10.5134 11.8269 10.4364 11.7667 10.3761C11.7064 10.3158 11.6294 10.2857 11.5356 10.2857H4.46422C4.37047 10.2857 4.29346 10.3158 4.23319 10.3761C4.17292 10.4364 4.14279 10.5134 4.14279 10.6071V11.25C4.14279 11.3438 4.17292 11.4208 4.23319 11.481C4.29346 11.5413 4.37047 11.5714 4.46422 11.5714H11.5356C11.6294 11.5714 11.7064 11.5413 11.7667 11.481C11.8269 11.4208 11.8571 11.3438 11.8571 11.25ZM11.8571 8.67857V8.03571C11.8571 7.94196 11.8269 7.86496 11.7667 7.80469C11.7064 7.74442 11.6294 7.71429 11.5356 7.71429H4.46422C4.37047 7.71429 4.29346 7.74442 4.23319 7.80469C4.17292 7.86496 4.14279 7.94196 4.14279 8.03571V8.67857C4.14279 8.77232 4.17292 8.84933 4.23319 8.9096C4.29346 8.96987 4.37047 9 4.46422 9H11.5356C11.6294 9 11.7064 8.96987 11.7667 8.9096C11.8269 8.84933 11.8571 8.77232 11.8571 8.67857Z"/>
</svg>
