<svg width="32" height="50" viewBox="0 0 32 50" fill="none" xmlns="http://www.w3.org/2000/svg">
<path d="M30.9322 34.0849C31.1236 34.0849 31.3071 34.0048 31.4424 33.8623C31.5777 33.7198 31.6537 33.5265 31.6537 33.3249C31.6537 23.4546 25.752 16.9893 16.5507 16.67V0.760032C16.5507 0.558459 16.4747 0.365142 16.3394 0.222608C16.2041 0.0800746 16.0206 0 15.8293 0C15.6379 0 15.4544 0.0800746 15.3191 0.222608C15.1838 0.365142 15.1078 0.558459 15.1078 0.760032V16.67C5.9017 16.9893 0 23.4546 0 33.3249C0 33.5265 0.0760127 33.7198 0.211316 33.8623C0.34662 34.0048 0.530131 34.0849 0.721479 34.0849H10.1248C10.3339 35.5327 11.0193 36.857 12.061 37.8267C13.1028 38.7963 14.4348 39.3496 15.8244 39.3899C17.2149 39.3508 18.5481 38.798 19.5908 37.8283C20.6336 36.8585 21.3196 35.5335 21.5289 34.0849H30.9322ZM15.8244 18.1749C22.616 18.1749 29.8644 21.9751 30.1963 32.5649H1.44296C1.78446 21.9751 9.03292 18.1749 15.8244 18.1749ZM15.8244 37.8699C14.818 37.8292 13.8536 37.4342 13.0854 36.7481C12.3172 36.0619 11.7896 35.1242 11.587 34.0849H20.0667C19.8639 35.125 19.3356 36.0634 18.5664 36.7496C17.7973 37.4359 16.8317 37.8303 15.8244 37.8699ZM31.7162 43.332L27.2382 39.7345C27.0858 39.6122 26.8935 39.5587 26.7036 39.5858C26.5137 39.6129 26.3418 39.7183 26.2258 39.8789C26.1097 40.0395 26.0589 40.2421 26.0846 40.4421C26.1103 40.6421 26.2104 40.8232 26.3628 40.9455L30.8408 44.543C30.9933 44.6653 31.1856 44.7187 31.3755 44.6917C31.4695 44.6783 31.5601 44.6455 31.642 44.5952C31.724 44.5449 31.7958 44.4781 31.8533 44.3986C31.9108 44.319 31.9528 44.2284 31.977 44.1318C32.0013 44.0351 32.0072 43.9344 31.9945 43.8354C31.9817 43.7363 31.9506 43.6409 31.9029 43.5545C31.8551 43.4682 31.7917 43.3925 31.7162 43.332ZM5.58425 39.6737L1.23132 43.4333C1.14287 43.4902 1.0671 43.5665 1.00916 43.6571C0.951228 43.7476 0.912487 43.8502 0.895578 43.9579C0.878669 44.0657 0.88399 44.176 0.911179 44.2813C0.938367 44.3867 0.986785 44.4846 1.05314 44.5685C1.11949 44.6524 1.20221 44.7202 1.29568 44.7674C1.38916 44.8145 1.49118 44.84 1.59481 44.8419C1.69843 44.8438 1.80123 44.8221 1.89621 44.7784C1.99119 44.7347 2.07611 44.67 2.1452 44.5886L6.50293 40.834C6.57934 40.7719 6.64315 40.6943 6.69058 40.6057C6.738 40.5172 6.76808 40.4195 6.77903 40.3185C6.78999 40.2175 6.78159 40.1152 6.75434 40.0177C6.72709 39.9201 6.68154 39.8294 6.62039 39.7507C6.55925 39.672 6.48374 39.6071 6.39834 39.5597C6.31294 39.5124 6.21939 39.4835 6.12323 39.4749C6.02706 39.4664 5.93024 39.4782 5.83848 39.5097C5.74673 39.5412 5.66192 39.5918 5.58906 39.6585L5.58425 39.6737ZM16.0361 43.1749C15.8447 43.1749 15.6612 43.255 15.5259 43.3975C15.3906 43.5401 15.3146 43.7334 15.3146 43.9349V49.24C15.3146 49.4415 15.3906 49.6349 15.5259 49.7774C15.6612 49.9199 15.8447 50 16.0361 50C16.2274 50 16.4109 49.9199 16.5462 49.7774C16.6815 49.6349 16.7576 49.4415 16.7576 49.24V43.9349C16.7576 43.7334 16.6815 43.5401 16.5462 43.3975C16.4109 43.255 16.2274 43.1749 16.0361 43.1749Z" fill="white"/>
</svg>
