<svg width="48" height="50" viewBox="0 0 48 50" fill="none" xmlns="http://www.w3.org/2000/svg">
<path d="M44.7736 0H3.22754C1.6877 0 0.43457 1.25234 0.43457 2.79219V44.3391C0.43457 45.8789 1.6877 47.1297 3.22676 47.1297H4.5791V49.243C4.5791 49.6609 4.91816 50 5.33691 50H11.933C12.3518 50 12.6908 49.6609 12.6908 49.243V47.1297H35.308V49.243C35.308 49.6609 35.6471 50 36.0658 50H42.6619C43.0799 50 43.4189 49.6609 43.4189 49.243V47.1297H44.7721C46.3119 47.1297 47.5643 45.8781 47.5643 44.3391V2.79219C47.5658 1.25234 46.3135 0 44.7736 0ZM3.22754 1.51406H44.7736C45.4768 1.51406 46.051 2.0875 46.051 2.79219V10.3617H1.9502V2.79219C1.9502 2.08828 2.52285 1.51406 3.22754 1.51406ZM11.176 48.4852H6.09551V47.1305H11.1768V48.4852H11.176ZM41.9049 48.4852H36.8236V47.1305H41.9049V48.4852ZM44.7736 45.6148H3.22754C2.52363 45.6148 1.9502 45.043 1.9502 44.3391V11.8773H46.051V44.3391C46.051 45.0422 45.4768 45.6148 44.7736 45.6148Z" fill="white"/>
<path d="M36.0662 8.98584C37.7459 8.98584 39.1131 7.61865 39.1131 5.93897C39.1131 4.25928 37.7459 2.89209 36.0662 2.89209C34.3857 2.89209 33.0186 4.25928 33.0186 5.93897C33.0186 7.61865 34.3857 8.98584 36.0662 8.98584ZM36.0662 4.40693C36.91 4.40693 37.5982 5.09443 37.5982 5.93897C37.5982 6.7835 36.91 7.471 36.0662 7.471C35.2209 7.471 34.5342 6.7835 34.5342 5.93897C34.5342 5.09443 35.2217 4.40693 36.0662 4.40693ZM23.9998 8.98584C25.6795 8.98584 27.0459 7.61865 27.0459 5.93897C27.0459 4.25928 25.6795 2.89209 23.9998 2.89209C22.3201 2.89209 20.9529 4.25928 20.9529 5.93897C20.9529 7.61865 22.3201 8.98584 23.9998 8.98584ZM23.9998 4.40693C24.8436 4.40693 25.5311 5.09443 25.5311 5.93897C25.5311 6.7835 24.8443 7.471 23.9998 7.471C23.1553 7.471 22.4678 6.7835 22.4678 5.93897C22.4678 5.09443 23.1553 4.40693 23.9998 4.40693ZM11.9334 8.98584C13.6139 8.98584 14.9795 7.61865 14.9795 5.93897C14.9795 4.25928 13.6139 2.89209 11.9334 2.89209C10.2537 2.89209 8.88652 4.25928 8.88652 5.93897C8.88652 7.61865 10.2537 8.98584 11.9334 8.98584ZM11.9334 4.40693C12.7779 4.40693 13.4654 5.09443 13.4654 5.93897C13.4654 6.7835 12.7779 7.471 11.9334 7.471C11.0889 7.471 10.4014 6.7835 10.4014 5.93897C10.4014 5.09443 11.0889 4.40693 11.9334 4.40693ZM40.5498 21.4491H7.45215C7.0334 21.4491 6.69434 21.789 6.69434 22.2069V40.6491C6.69434 41.0679 7.0334 41.4069 7.45215 41.4069H40.5498C40.9693 41.4069 41.3084 41.0679 41.3084 40.6491V22.2069C41.3076 21.789 40.9693 21.4491 40.5498 21.4491ZM39.7928 39.8921H8.20996V22.9647H39.7928V39.8921Z" fill="white"/>
</svg>
