<svg width="46" height="46" viewBox="0 0 46 46" fill="none" xmlns="http://www.w3.org/2000/svg">
<path d="M45.4802 44.295L39.4802 15.295C39.3852 14.835 38.9752 14.5 38.5002 14.5H7.50023C7.02523 14.5 6.61523 14.835 6.52023 15.295L0.520225 44.295C0.460225 44.59 0.535225 44.895 0.725225 45.13C0.915225 45.365 1.20023 45.5 1.50023 45.5H44.5002C44.8002 45.5 45.0852 45.365 45.2752 45.13C45.4652 44.9 45.5402 44.59 45.4802 44.295ZM40.2702 29C40.2602 29 40.2552 29 40.2502 29H24.0002V16.5H37.6852L40.2702 29ZM8.31523 16.5H22.0002V29H5.75023C5.74023 29 5.73523 29 5.73023 29L8.31523 16.5ZM5.33523 30.905C5.46023 30.965 5.60023 31 5.75023 31H22.0002V43.5H2.73023L5.33523 30.905ZM24.0002 43.5V31H40.2502C40.4002 31 40.5402 30.965 40.6652 30.905L43.2702 43.5H24.0002ZM26.5002 6C27.8802 6 29.0002 7.12 29.0002 8.5C29.0002 9.05 29.4502 9.5 30.0002 9.5C30.5502 9.5 31.0002 9.05 31.0002 8.5C31.0002 7.12 32.1202 6 33.5002 6C34.0502 6 34.5002 5.55 34.5002 5C34.5002 4.45 34.0502 4 33.5002 4C32.1202 4 31.0002 2.88 31.0002 1.5C31.0002 0.95 30.5502 0.5 30.0002 0.5C29.4502 0.5 29.0002 0.95 29.0002 1.5C29.0002 2.88 27.8802 4 26.5002 4C25.9502 4 25.5002 4.45 25.5002 5C25.5002 5.55 25.9502 6 26.5002 6ZM30.0002 4.32C30.2002 4.57 30.4302 4.795 30.6802 5C30.4302 5.2 30.2052 5.43 30.0002 5.68C29.8002 5.43 29.5702 5.205 29.3202 5C29.5702 4.8 29.8002 4.57 30.0002 4.32ZM12.5002 8C13.8802 8 15.0002 9.12 15.0002 10.5C15.0002 11.05 15.4502 11.5 16.0002 11.5C16.5502 11.5 17.0002 11.05 17.0002 10.5C17.0002 9.12 18.1202 8 19.5002 8C20.0502 8 20.5002 7.55 20.5002 7C20.5002 6.45 20.0502 6 19.5002 6C18.1202 6 17.0002 4.88 17.0002 3.5C17.0002 2.95 16.5502 2.5 16.0002 2.5C15.4502 2.5 15.0002 2.95 15.0002 3.5C15.0002 4.88 13.8802 6 12.5002 6C11.9502 6 11.5002 6.45 11.5002 7C11.5002 7.55 11.9502 8 12.5002 8ZM16.0002 6.32C16.2002 6.57 16.4302 6.795 16.6802 7C16.4302 7.2 16.2052 7.43 16.0002 7.68C15.8002 7.43 15.5702 7.205 15.3202 7C15.5702 6.8 15.8002 6.57 16.0002 6.32Z" fill="white"/>
</svg>
