<svg width="48" height="50" viewBox="0 0 48 50" fill="none" xmlns="http://www.w3.org/2000/svg">
<path d="M43.7312 -96.1306C43.2992 -96.1306 42.95 -96.4806 42.95 -96.9118V-100.699H7.04761V-96.9118C7.04761 -96.4806 6.69839 -96.1306 6.26636 -96.1306C5.83433 -96.1306 5.48511 -96.4806 5.48511 -96.9118V-110.487C5.48511 -112.784 7.35306 -114.653 9.64838 -114.653H40.3452C42.6421 -114.653 44.5117 -112.784 44.5117 -110.487V-96.9118C44.5124 -96.4806 44.1625 -96.1306 43.7312 -96.1306ZM7.04761 -102.261H42.9492V-110.487C42.9492 -111.923 41.7812 -113.091 40.3452 -113.091H9.64917C8.2148 -113.091 7.0484 -111.923 7.0484 -110.487L7.04761 -102.261ZM46.8741 -114.807H3.12573C2.6937 -114.807 2.34448 -115.157 2.34448 -115.588C2.34448 -116.02 2.6937 -116.37 3.12573 -116.37H46.8741C47.3062 -116.37 47.6554 -116.02 47.6554 -115.588C47.6554 -115.157 47.3062 -114.807 46.8741 -114.807ZM-282.445 -25.9204C-282.877 -25.9204 -283.227 -26.2704 -283.227 -26.7017V-33.9384H-292.162V-26.7017C-292.162 -26.2704 -292.512 -25.9204 -292.943 -25.9204C-293.374 -25.9204 -293.724 -26.2704 -293.724 -26.7017V-38.1438H-295.174C-295.605 -38.1438 -295.955 -38.4938 -295.955 -38.9251C-295.955 -39.3563 -295.605 -39.7063 -295.174 -39.7063H-283.145L-282.031 -49.7267V-54.5485C-282.031 -54.9798 -281.681 -55.3298 -281.25 -55.3298C-280.819 -55.3298 -280.469 -54.9798 -280.469 -54.5485V-49.6946C-280.469 -49.6759 -280.469 -49.6571 -280.47 -49.6384C-280.47 -49.6212 -280.472 -49.6032 -280.474 -49.586L-281.663 -38.8821V-26.7017C-281.664 -26.2696 -282.014 -25.9204 -282.445 -25.9204ZM-292.162 -35.5001H-283.227V-38.1438H-292.162V-35.5001ZM-303.126 -25.9204C-303.149 -25.9204 -303.173 -25.9212 -303.195 -25.9235H-308.373C-308.804 -25.9235 -309.154 -26.2735 -309.154 -26.7048C-309.154 -27.136 -308.804 -27.486 -308.373 -27.486H-303.907V-45.3212H-316.586C-317.017 -45.3212 -317.367 -45.6712 -317.367 -46.1024C-317.367 -46.5337 -317.017 -46.8837 -316.586 -46.8837H-289.662C-289.23 -46.8837 -288.88 -46.5337 -288.88 -46.1024C-288.88 -45.6712 -289.23 -45.3212 -289.662 -45.3212H-302.345V-27.486H-297.877C-297.445 -27.486 -297.095 -27.136 -297.095 -26.7048C-297.095 -26.2735 -297.445 -25.9235 -297.877 -25.9235H-303.056C-303.079 -25.9212 -303.102 -25.9204 -303.126 -25.9204ZM-313.309 -25.9204C-313.74 -25.9204 -314.09 -26.2704 -314.09 -26.7017V-33.9384H-323.023V-26.7017C-323.023 -26.2704 -323.373 -25.9204 -323.805 -25.9204C-324.236 -25.9204 -324.586 -26.2704 -324.586 -26.7017V-38.8821L-325.775 -49.586C-325.777 -49.604 -325.779 -49.6227 -325.78 -49.6415C-325.781 -49.6587 -325.781 -49.6767 -325.781 -49.6946V-54.5485C-325.781 -54.9798 -325.431 -55.3298 -325 -55.3298C-324.569 -55.3298 -324.219 -54.9798 -324.219 -54.5485V-49.7267L-323.105 -39.7063H-311.077C-310.646 -39.7063 -310.296 -39.3563 -310.296 -38.9251C-310.296 -38.4938 -310.646 -38.1438 -311.077 -38.1438H-312.527V-26.7017C-312.527 -26.2696 -312.877 -25.9204 -313.309 -25.9204ZM-323.023 -35.5001H-314.09V-38.1438H-323.023V-35.5001ZM-218.766 -29.529C-219.198 -29.529 -219.548 -29.879 -219.548 -30.3102V-32.4602H-237.501C-237.933 -32.4602 -238.282 -32.8095 -238.282 -33.2415V-48.2048H-255.453V-30.3102C-255.453 -29.879 -255.803 -29.529 -256.234 -29.529C-256.666 -29.529 -257.016 -29.879 -257.016 -30.3102V-48.2048H-259.375C-259.806 -48.2048 -260.156 -48.5548 -260.156 -48.986V-50.9399C-260.156 -51.3712 -259.806 -51.7212 -259.375 -51.7212H-215.625C-215.194 -51.7212 -214.844 -51.3712 -214.844 -50.9399V-48.986C-214.844 -48.5548 -215.194 -48.2048 -215.625 -48.2048H-217.985V-30.3102C-217.985 -29.879 -218.334 -29.529 -218.766 -29.529ZM-236.72 -34.0227H-219.548V-40.3313H-236.72V-34.0227ZM-236.72 -41.8938H-219.548V-48.2048H-236.72V-41.8938ZM-218.766 -49.7673H-216.406V-50.1587H-258.594V-49.7673H-218.766ZM-227.11 -36.3954H-229.151C-229.583 -36.3954 -229.932 -36.7454 -229.932 -37.1767C-229.932 -37.6087 -229.583 -37.9579 -229.151 -37.9579H-227.11C-226.679 -37.9579 -226.329 -37.6087 -226.329 -37.1767C-226.329 -36.7454 -226.679 -36.3954 -227.11 -36.3954ZM-227.11 -44.2696H-229.151C-229.583 -44.2696 -229.932 -44.6196 -229.932 -45.0509C-229.932 -45.4829 -229.583 -45.8321 -229.151 -45.8321H-227.11C-226.679 -45.8321 -226.329 -45.4829 -226.329 -45.0509C-226.329 -44.6196 -226.679 -44.2696 -227.11 -44.2696ZM-153.141 -29.529C-153.573 -29.529 -153.923 -29.879 -153.923 -30.3102V-40.3313H-189.828V-30.3102C-189.828 -29.879 -190.178 -29.529 -190.609 -29.529C-191.041 -29.529 -191.391 -29.879 -191.391 -30.3102V-48.2048H-193.75C-194.181 -48.2048 -194.531 -48.5548 -194.531 -48.986V-50.9399C-194.531 -51.3712 -194.181 -51.7212 -193.75 -51.7212H-150C-149.569 -51.7212 -149.219 -51.3712 -149.219 -50.9399V-48.986C-149.219 -48.5548 -149.569 -48.2048 -150 -48.2048H-152.36V-30.3102C-152.36 -29.879 -152.709 -29.529 -153.141 -29.529ZM-171.095 -41.8938H-153.923V-48.2048H-171.095V-41.8938ZM-189.827 -41.8938H-172.656V-48.2048H-189.827V-41.8938ZM-153.141 -49.7673H-150.781V-50.1587H-192.969V-49.7673H-153.141ZM-161.485 -44.2696H-163.526C-163.957 -44.2696 -164.307 -44.6196 -164.307 -45.0509C-164.307 -45.4821 -163.957 -45.8321 -163.526 -45.8321H-161.485C-161.054 -45.8321 -160.704 -45.4821 -160.704 -45.0509C-160.704 -44.6196 -161.054 -44.2696 -161.485 -44.2696ZM-180.221 -44.3899H-182.263C-182.695 -44.3899 -183.045 -44.7399 -183.045 -45.1712C-183.045 -45.6024 -182.695 -45.9524 -182.263 -45.9524H-180.221C-179.79 -45.9524 -179.44 -45.6024 -179.44 -45.1712C-179.44 -44.7399 -179.789 -44.3899 -180.221 -44.3899ZM-97.2422 -17.9688C-97.6742 -17.9688 -98.0235 -18.3188 -98.0235 -18.7501V-21.1102H-114.479V-18.7501C-114.479 -18.3188 -114.828 -17.9688 -115.26 -17.9688C-115.692 -17.9688 -116.041 -18.3188 -116.041 -18.7501V-33.5009H-118.891C-119.323 -33.5009 -119.672 -33.8509 -119.672 -34.2821C-119.634 -35.7845 -118.446 -36.9423 -116.964 -36.9423H-115.844L-115.838 -54.0431C-115.632 -59.2368 -111.421 -63.2813 -106.252 -63.2813C-101.079 -63.2813 -96.868 -59.2368 -96.6649 -54.0735L-96.6555 -36.9423H-95.5344C-94.0766 -36.9423 -92.8618 -35.7587 -92.8266 -34.3048C-92.8266 -34.2985 -92.8266 -34.2923 -92.8266 -34.286V-34.2821C-92.8266 -33.8509 -93.1758 -33.5009 -93.6078 -33.5009H-96.4594V-18.7501C-96.461 -18.3188 -96.8102 -17.9688 -97.2422 -17.9688ZM-114.479 -22.6727H-98.0235V-27.3063H-114.479V-22.6727ZM-114.479 -28.8681H-98.0235V-33.5009H-114.479V-28.8681ZM-97.2422 -35.0634H-94.7477C-94.9539 -35.2587 -95.2321 -35.3798 -95.536 -35.3798H-116.966C-117.269 -35.3798 -117.547 -35.2587 -117.754 -35.0634H-97.2422ZM-114.282 -36.9423H-98.218L-98.2266 -54.0423C-98.3961 -58.3337 -101.921 -61.7188 -106.251 -61.7188C-110.578 -61.7188 -114.104 -58.3337 -114.276 -54.0118L-114.282 -36.9423ZM-105.269 -24.2056H-107.23C-107.663 -24.2056 -108.012 -24.5556 -108.012 -24.9868C-108.012 -25.4181 -107.663 -25.7681 -107.23 -25.7681H-105.269C-104.837 -25.7681 -104.488 -25.4181 -104.488 -24.9868C-104.488 -24.5556 -104.837 -24.2056 -105.269 -24.2056ZM-105.269 -30.4048H-107.23C-107.663 -30.4048 -108.012 -30.7548 -108.012 -31.186C-108.012 -31.6173 -107.663 -31.9673 -107.23 -31.9673H-105.269C-104.837 -31.9673 -104.488 -31.6173 -104.488 -31.186C-104.488 -30.7548 -104.837 -30.4048 -105.269 -30.4048ZM-110.68 -44.1188C-110.88 -44.1188 -111.08 -44.1954 -111.232 -44.3477C-111.538 -44.6532 -111.538 -45.147 -111.232 -45.4524L-102.372 -54.3126C-102.066 -54.6181 -101.573 -54.6181 -101.267 -54.3126C-100.962 -54.0071 -100.962 -53.5134 -101.267 -53.2079L-110.127 -44.3477C-110.28 -44.1946 -110.48 -44.1188 -110.68 -44.1188ZM-106.82 -44.6657C-107.02 -44.6657 -107.22 -44.7423 -107.373 -44.8946C-107.678 -45.2001 -107.678 -45.6946 -107.373 -46.0001L-102.919 -50.4517C-102.613 -50.7563 -102.12 -50.7563 -101.814 -50.4517C-101.509 -50.147 -101.509 -49.6516 -101.814 -49.3462L-106.268 -44.8946C-106.421 -44.7423 -106.621 -44.6657 -106.82 -44.6657ZM-110.133 -47.9798C-110.333 -47.9798 -110.533 -48.0563 -110.685 -48.2087C-110.991 -48.5134 -110.991 -49.0079 -110.685 -49.3134L-106.235 -53.7649C-105.93 -54.0704 -105.436 -54.0704 -105.131 -53.7649C-104.825 -53.4602 -104.825 -52.9657 -105.131 -52.6602L-109.581 -48.2087C-109.733 -48.0563 -109.933 -47.9798 -110.133 -47.9798ZM-51.3696 -17.9688C-51.4727 -17.9688 -51.5781 -17.9891 -51.6789 -18.0329C-52.075 -18.2048 -52.2563 -18.6649 -52.086 -19.0602L-51.5219 -20.3626H-52.7633C-53.1953 -20.3626 -53.5446 -20.7126 -53.5446 -21.1438V-37.8423C-53.5446 -38.2977 -53.1352 -38.6556 -52.6938 -38.6204H-46.1438V-47.8024H-52.7633C-52.9922 -47.8024 -53.2086 -47.9024 -53.3578 -48.0766C-53.5055 -48.2509 -53.5703 -48.4806 -53.5352 -48.7063L-51.3336 -62.6227C-51.2735 -63.0024 -50.9461 -63.2813 -50.5618 -63.2813H-40.1719C-39.7875 -63.2813 -39.461 -63.0024 -39.4008 -62.6227L-37.1946 -48.7063C-37.1586 -48.4806 -37.2235 -48.2501 -37.3719 -48.0759C-37.5204 -47.9017 -37.7375 -47.8017 -37.9664 -47.8017H-39.7102V-44.0868C-39.7102 -43.6556 -40.0594 -43.3056 -40.4915 -43.3056C-40.9235 -43.3056 -41.2727 -43.6556 -41.2727 -44.0868V-47.8017H-44.5821V-38.6196H-28.5563C-28.1141 -38.6548 -27.7055 -38.297 -27.7055 -37.8415V-21.1431C-27.7055 -20.7118 -28.0548 -20.3618 -28.4868 -20.3618H-29.6961L-29.1313 -19.0602C-28.9586 -18.6642 -29.1415 -18.204 -29.5368 -18.0329C-29.9336 -17.8618 -30.3938 -18.0431 -30.5641 -18.4391L-31.3993 -20.3626H-49.8188L-50.6508 -18.4399C-50.7789 -18.1454 -51.0672 -17.9688 -51.3696 -17.9688ZM-30.8696 -21.9251H-29.268V-28.7102H-51.9821V-21.9251H-50.35C-50.3375 -21.9259 -50.3266 -21.9259 -50.3141 -21.9251H-30.9047C-30.893 -21.9259 -30.8805 -21.9259 -30.8696 -21.9251ZM-51.9821 -30.2727H-29.268V-37.0587H-51.9821V-30.2727ZM-40.4907 -49.3657H-38.8797L-40.8383 -61.7188H-49.8938L-51.8485 -49.3649L-40.4907 -49.3657ZM-39.304 -24.5329H-41.95C-42.3821 -24.5329 -42.7313 -24.8829 -42.7313 -25.3141C-42.7313 -25.7462 -42.3821 -26.0954 -41.95 -26.0954H-39.304C-38.8719 -26.0954 -38.5227 -25.7462 -38.5227 -25.3141C-38.5227 -24.8837 -38.8719 -24.5329 -39.304 -24.5329ZM-39.304 -32.8876H-41.95C-42.3821 -32.8876 -42.7313 -33.2376 -42.7313 -33.6688C-42.7313 -34.1009 -42.3821 -34.4501 -41.95 -34.4501H-39.304C-38.8719 -34.4501 -38.5227 -34.1009 -38.5227 -33.6688C-38.5227 -33.2376 -38.8719 -32.8876 -39.304 -32.8876ZM45.6484 -31.2423C45.346 -31.2423 45.0585 -31.4188 44.9312 -31.7134L44.1999 -33.3985H25.0015H24.9984H5.82965L5.1015 -31.7134C4.93041 -31.3188 4.47183 -31.1352 4.07495 -31.3063C3.67886 -31.4774 3.49684 -31.9376 3.66794 -32.3337L4.12808 -33.3977H3.12573C2.6937 -33.3977 2.34448 -33.7477 2.34448 -34.179V-49.2243C2.34448 -49.6727 2.74683 -50.0306 3.17496 -50.004H24.95C24.9664 -50.0056 24.9851 -50.0102 24.9999 -50.0056C25.0195 -50.0102 25.0336 -50.0056 25.05 -50.004H46.825C47.25 -50.0306 47.6554 -49.6727 47.6554 -49.2243V-34.179C47.6554 -33.7477 47.3062 -33.3977 46.8741 -33.3977H45.9031L46.364 -32.3345C46.5359 -31.9384 46.3538 -31.4782 45.9577 -31.3071C45.857 -31.2634 45.7515 -31.2423 45.6484 -31.2423ZM44.7296 -34.9602H46.0929V-40.9212H25.7828V-34.9602H44.6953C44.7062 -34.961 44.7187 -34.961 44.7296 -34.9602ZM5.33353 -34.9602H24.2171V-40.9212H3.90698V-34.9602H5.29916C5.30932 -34.961 5.32181 -34.961 5.33353 -34.9602ZM25.7828 -42.4837H46.0929V-48.4415H25.7828V-42.4837ZM3.90698 -42.4837H24.2171V-48.4415H3.90698V-42.4837ZM37.1296 -37.1587H34.7453C34.3132 -37.1587 33.964 -37.5087 33.964 -37.9399C33.964 -38.3712 34.3132 -38.7212 34.7453 -38.7212H37.1296C37.5617 -38.7212 37.9109 -38.3712 37.9109 -37.9399C37.9109 -37.5087 37.5617 -37.1587 37.1296 -37.1587ZM15.2507 -37.1587H12.8671C12.4351 -37.1587 12.0859 -37.5087 12.0859 -37.9399C12.0859 -38.3712 12.4351 -38.7212 12.8671 -38.7212H15.2515C15.6836 -38.7212 16.0328 -38.3712 16.0328 -37.9399C16.0328 -37.5087 15.6828 -37.1587 15.2507 -37.1587ZM37.1296 -44.6821H34.7453C34.3132 -44.6821 33.964 -45.0321 33.964 -45.4634C33.964 -45.8946 34.3132 -46.2446 34.7453 -46.2446H37.1296C37.5617 -46.2446 37.9109 -45.8946 37.9109 -45.4634C37.9109 -45.0321 37.5617 -44.6821 37.1296 -44.6821ZM15.2507 -44.6821H12.8671C12.4351 -44.6821 12.0859 -45.0321 12.0859 -45.4634C12.0859 -45.8946 12.4351 -46.2446 12.8671 -46.2446H15.2515C15.6836 -46.2446 16.0328 -45.8946 16.0328 -45.4634C16.0328 -45.0321 15.6828 -44.6821 15.2507 -44.6821ZM-323.741 34.3804C-323.845 34.3804 -323.951 34.3601 -324.052 34.3163C-324.448 34.1445 -324.63 33.6843 -324.458 33.289L-323.998 32.2257H-325C-325.431 32.2257 -325.781 31.8765 -325.781 31.4444V16.3999C-325.781 15.9679 -325.431 15.6187 -325 15.6187H-303.126C-303.123 15.6187 -303.123 15.6187 -303.123 15.6187H-281.25C-280.819 15.6187 -280.469 15.9679 -280.469 16.3999V31.4437C-280.469 31.8757 -280.819 32.2249 -281.25 32.2249H-282.221L-281.76 33.2874C-281.588 33.6835 -281.77 34.1437 -282.166 34.3148C-282.561 34.4882 -283.022 34.3054 -283.194 33.9093L-283.925 32.2241H-303.123C-303.123 32.2241 -303.123 32.2234 -303.126 32.2241H-322.295L-323.024 33.9085C-323.152 34.2038 -323.439 34.3804 -323.741 34.3804ZM-283.395 30.6624H-282.031V17.1812H-302.341V30.6624H-283.43C-283.418 30.6624 -283.406 30.6624 -283.395 30.6624ZM-322.79 30.6624H-303.907V24.703H-324.219V30.6624H-322.825C-322.813 30.6624 -322.802 30.6624 -322.79 30.6624ZM-324.219 23.1405H-303.907V17.1812H-324.219V23.1405ZM-312.871 28.4648H-315.255C-315.687 28.4648 -316.037 28.1155 -316.037 27.6835C-316.037 27.2515 -315.687 26.9023 -315.255 26.9023H-312.871C-312.44 26.9023 -312.09 27.2515 -312.09 27.6835C-312.09 28.1155 -312.44 28.4648 -312.871 28.4648ZM-300.691 25.8929C-301.122 25.8929 -301.472 25.5437 -301.472 25.1116V22.7265C-301.472 22.2944 -301.122 21.9452 -300.691 21.9452C-300.259 21.9452 -299.909 22.2944 -299.909 22.7265V25.1116C-299.909 25.5429 -300.259 25.8929 -300.691 25.8929ZM-312.871 20.939H-315.255C-315.687 20.939 -316.037 20.5898 -316.037 20.1577C-316.037 19.7257 -315.687 19.3765 -315.255 19.3765H-312.871C-312.44 19.3765 -312.09 19.7257 -312.09 20.1577C-312.09 20.5898 -312.44 20.939 -312.871 20.939ZM-217.787 37.5913C-218.218 37.5913 -218.568 37.2421 -218.568 36.8101V36.5366H-237.497C-237.497 36.5366 -237.498 36.5366 -237.5 36.5366H-256.401V36.8101C-256.401 37.2421 -256.751 37.5913 -257.182 37.5913C-257.613 37.5913 -257.963 37.2421 -257.963 36.8101V36.5366H-259.305C-259.752 36.5859 -260.155 36.214 -260.155 35.7585V13.1898C-260.155 12.7577 -259.805 12.4085 -259.374 12.4085H-215.624C-215.193 12.4085 -214.843 12.7577 -214.843 13.1898C-214.843 13.2132 -214.844 13.2366 -214.846 13.2593V20.6429C-214.845 20.6655 -214.843 20.689 -214.843 20.7124V35.7562C-214.843 36.1882 -215.193 36.5374 -215.624 36.5374H-217.005V36.8109C-217.005 37.2421 -217.355 37.5913 -217.787 37.5913ZM-236.716 34.9749H-216.406V29.0148H-236.716V34.9749ZM-258.594 34.9749H-238.282V29.0148H-258.594V34.9749ZM-236.716 27.4523H-216.406V20.782C-216.408 20.7593 -216.409 20.7358 -216.409 20.7124V13.971H-236.716V27.4523ZM-258.594 27.4523H-238.279V13.971H-258.594V27.4523ZM-225.369 32.7788H-227.753C-228.184 32.7788 -228.534 32.4296 -228.534 31.9976C-228.534 31.5655 -228.184 31.2163 -227.753 31.2163H-225.369C-224.938 31.2163 -224.588 31.5655 -224.588 31.9976C-224.588 32.4296 -224.938 32.7788 -225.369 32.7788ZM-247.246 32.7788H-249.63C-250.062 32.7788 -250.412 32.4296 -250.412 31.9976C-250.412 31.5655 -250.062 31.2163 -249.63 31.2163H-247.246C-246.815 31.2163 -246.465 31.5655 -246.465 31.9976C-246.465 32.4296 -246.815 32.7788 -247.246 32.7788ZM-217.939 22.6819C-218.37 22.6819 -218.72 22.3327 -218.72 21.9007V19.5187C-218.72 19.0866 -218.37 18.7374 -217.939 18.7374C-217.508 18.7374 -217.158 19.0866 -217.158 19.5187V21.9007C-217.158 22.3327 -217.508 22.6819 -217.939 22.6819ZM-257.075 22.6819C-257.506 22.6819 -257.856 22.3327 -257.856 21.9007V19.5187C-257.856 19.0866 -257.506 18.7374 -257.075 18.7374C-256.644 18.7374 -256.294 19.0866 -256.294 19.5187V21.9007C-256.294 22.3327 -256.643 22.6819 -257.075 22.6819ZM-152.162 41.6194C-152.593 41.6194 -152.943 41.2702 -152.943 40.8382V40.5609H-171.872C-171.872 40.5609 -171.873 40.5609 -171.875 40.5609H-190.776V40.8382C-190.776 41.2702 -191.126 41.6194 -191.557 41.6194C-191.988 41.6194 -192.338 41.2702 -192.338 40.8382V40.5609H-193.68C-194.125 40.6116 -194.53 40.2382 -194.53 39.7827V32.2577C-194.53 31.8257 -194.18 31.4765 -193.749 31.4765H-190.556V29.4726H-193.75C-194.181 29.4726 -194.531 29.1234 -194.531 28.6913C-194.531 28.2593 -194.181 27.9101 -193.75 27.9101H-175.047L-174.52 26.2007H-185.901C-186.332 26.2007 -186.682 25.8515 -186.682 25.4194V9.16164C-186.682 8.72961 -186.332 8.38039 -185.901 8.38039H-157.849C-157.418 8.38039 -157.068 8.72961 -157.068 9.16164V25.4202C-157.068 25.8523 -157.418 26.2015 -157.849 26.2015H-169.231L-168.705 27.9109H-150C-149.569 27.9109 -149.219 28.2601 -149.219 28.6921C-149.219 29.1241 -149.569 29.4734 -150 29.4734H-153.192V31.4773H-150C-149.569 31.4773 -149.219 31.8265 -149.219 32.2585V39.7804C-149.219 40.2124 -149.569 40.5616 -150 40.5616H-151.38V40.839C-151.38 41.2702 -151.73 41.6194 -152.162 41.6194ZM-171.095 38.9984H-150.781V33.039H-171.095V38.9984ZM-192.969 38.9984H-172.657V33.039H-192.969V38.9984ZM-188.995 31.4765H-154.755V29.4726H-169.263C-169.274 29.4734 -169.286 29.4734 -169.299 29.4726H-174.451C-174.463 29.4734 -174.475 29.4734 -174.487 29.4726H-188.994L-188.995 31.4765ZM-173.412 27.9101H-170.34L-170.866 26.2007H-172.885L-173.412 27.9101ZM-170.271 24.6382H-158.63V9.94289H-185.12V24.639H-173.48C-173.467 24.6398 -173.455 24.6398 -173.445 24.639H-170.307C-170.295 24.639 -170.283 24.639 -170.271 24.6382ZM-159.744 36.803H-162.128C-162.559 36.803 -162.909 36.4538 -162.909 36.0218C-162.909 35.5898 -162.559 35.2405 -162.128 35.2405H-159.744C-159.313 35.2405 -158.963 35.5898 -158.963 36.0218C-158.963 36.4538 -159.313 36.803 -159.744 36.803ZM-181.621 36.803H-184.005C-184.437 36.803 -184.787 36.4538 -184.787 36.0218C-184.787 35.5898 -184.437 35.2405 -184.005 35.2405H-181.621C-181.19 35.2405 -180.84 35.5898 -180.84 36.0218C-180.84 36.4538 -181.19 36.803 -181.621 36.803ZM-98.9579 35.4147C-99.3899 35.4147 -99.7391 35.0655 -99.7391 34.6335V33.0374H-112.765V34.6335C-112.765 35.0655 -113.114 35.4147 -113.546 35.4147C-113.978 35.4147 -114.327 35.0655 -114.327 34.6335V33.0374H-127.343V34.6148C-127.343 35.0468 -127.692 35.396 -128.124 35.396C-128.556 35.396 -128.905 35.0468 -128.905 34.6148V15.3663C-128.905 14.9343 -128.556 14.5851 -128.124 14.5851H-84.3758C-83.9438 14.5851 -83.5946 14.9343 -83.5946 15.3663V34.6116C-83.5946 35.0437 -83.9438 35.3929 -84.3758 35.3929C-84.8079 35.3929 -85.1571 35.0437 -85.1571 34.6116V33.0374H-98.1766V34.6335C-98.1766 35.0655 -98.5258 35.4147 -98.9579 35.4147ZM-98.1766 31.4749H-85.1571V20.8874H-98.1766V31.4749ZM-112.765 31.4749H-99.7391V18.5444H-112.765V31.4749ZM-127.343 31.4749H-114.327V20.8874H-127.343V31.4749ZM-98.1766 19.3249H-85.1571V16.1476H-98.1766V19.3249ZM-127.343 19.3249H-114.327V16.1476H-127.343V19.3249ZM-112.765 16.9819H-99.7391V16.1476H-112.765V16.9819ZM-97.2094 27.7319C-97.6414 27.7319 -97.9907 27.3827 -97.9907 26.9507V25.4116C-97.9907 24.9796 -97.6414 24.6304 -97.2094 24.6304C-96.7774 24.6304 -96.4282 24.9796 -96.4282 25.4116V26.9507C-96.4282 27.3827 -96.7774 27.7319 -97.2094 27.7319ZM-115.294 27.7319C-115.726 27.7319 -116.075 27.3827 -116.075 26.9507V25.4116C-116.075 24.9796 -115.726 24.6304 -115.294 24.6304C-114.862 24.6304 -114.513 24.9796 -114.513 25.4116V26.9507C-114.513 27.3827 -114.862 27.7319 -115.294 27.7319ZM-90.8703 18.3437H-92.4594C-92.8914 18.3437 -93.2407 17.9944 -93.2407 17.5624C-93.2407 17.1304 -92.8914 16.7812 -92.4594 16.7812H-90.8703C-90.4383 16.7812 -90.0891 17.1304 -90.0891 17.5624C-90.0891 17.9944 -90.4391 18.3437 -90.8703 18.3437ZM-120.04 18.3437H-121.626C-122.058 18.3437 -122.407 17.9944 -122.407 17.5624C-122.407 17.1304 -122.058 16.7812 -121.626 16.7812H-120.04C-119.608 16.7812 -119.259 17.1304 -119.259 17.5624C-119.259 17.9944 -119.609 18.3437 -120.04 18.3437ZM-30.0258 47.6554H-51.2281C-51.6602 47.6554 -52.0094 47.3062 -52.0094 46.8741V17.7085V17.7054V3.1257C-52.0094 2.69367 -51.6602 2.34445 -51.2281 2.34445H-30.0227C-29.5907 2.34445 -29.2415 2.69367 -29.2415 3.1257C-29.2415 3.14914 -29.2422 3.17256 -29.2446 3.19522V17.6421C-29.2422 17.6648 -29.2415 17.6882 -29.2415 17.7116C-29.2415 17.7351 -29.2422 17.7585 -29.2446 17.7812V32.2249C-29.2422 32.2476 -29.2415 32.271 -29.2415 32.2944C-29.2415 32.3179 -29.2422 32.3413 -29.2446 32.364V46.8741C-29.2446 47.3062 -29.5938 47.6554 -30.0258 47.6554ZM-50.4461 46.0929H-30.8063V33.0757H-50.4461V46.0929ZM-50.4461 31.5101H-30.8063V18.4929H-50.4461V31.5101ZM-50.4461 16.9241H-30.8063V3.90695H-50.4461V16.9241ZM-48.9993 41.5226C-49.4313 41.5226 -49.7805 41.1733 -49.7805 40.7413V38.4304C-49.7805 37.9984 -49.4313 37.6491 -48.9993 37.6491C-48.5672 37.6491 -48.218 37.9984 -48.218 38.4304V40.7413C-48.218 41.1733 -48.5672 41.5226 -48.9993 41.5226ZM-48.9993 26.9366C-49.4313 26.9366 -49.7805 26.5874 -49.7805 26.1554V23.8476C-49.7805 23.4155 -49.4313 23.0663 -48.9993 23.0663C-48.5672 23.0663 -48.218 23.4155 -48.218 23.8476V26.1554C-48.218 26.5874 -48.5672 26.9366 -48.9993 26.9366ZM-48.9993 12.3515C-49.4313 12.3515 -49.7805 12.0023 -49.7805 11.5702V9.26241C-49.7805 8.83038 -49.4313 8.48116 -48.9993 8.48116C-48.5672 8.48116 -48.218 8.83038 -48.218 9.26241V11.5702C-48.218 12.0015 -48.5672 12.3515 -48.9993 12.3515ZM46.2039 47.6554H25.0015H24.9984H3.79605C3.36402 47.6554 3.0148 47.3062 3.0148 46.8741V3.1257C3.0148 2.69367 3.36402 2.34445 3.79605 2.34445H46.2031C46.6351 2.34445 46.9843 2.69367 46.9843 3.1257V17.7054V17.7085V46.8741C46.9851 47.3062 46.6351 47.6554 46.2039 47.6554ZM25.7828 46.0929H45.4226V17.7085V17.7054V3.90695H25.7828V17.7054V17.7085V46.0929ZM4.5773 46.0929H24.2171V33.0726H4.5773V46.0929ZM4.5773 31.5101H24.2171V17.7085V17.7054V3.90695H4.5773V31.5101ZM22.5312 41.5226C22.0992 41.5226 21.7499 41.1733 21.7499 40.7413V38.4304C21.7499 37.9984 22.0992 37.6491 22.5312 37.6491C22.9632 37.6491 23.3124 37.9984 23.3124 38.4304V40.7413C23.3124 41.1733 22.9632 41.5226 22.5312 41.5226ZM27.4687 26.9366C27.0367 26.9366 26.6874 26.5874 26.6874 26.1554V23.8476C26.6874 23.4155 27.0367 23.0663 27.4687 23.0663C27.9007 23.0663 28.2499 23.4155 28.2499 23.8476V26.1554C28.2499 26.5874 27.9007 26.9366 27.4687 26.9366ZM22.5312 26.9366C22.0992 26.9366 21.7499 26.5874 21.7499 26.1554V23.8476C21.7499 23.4155 22.0992 23.0663 22.5312 23.0663C22.9632 23.0663 23.3124 23.4155 23.3124 23.8476V26.1554C23.3124 26.5874 22.9632 26.9366 22.5312 26.9366ZM-281.92 113.28H-303.123H-303.126H-324.33C-324.761 113.28 -325.111 112.931 -325.111 112.499V68.7507C-325.111 68.3187 -324.761 67.9695 -324.33 67.9695H-281.921C-281.49 67.9695 -281.14 68.3187 -281.14 68.7507V83.3304V83.3335V112.499C-281.139 112.931 -281.49 113.28 -281.92 113.28ZM-302.341 111.718H-282.702V83.3335V83.3304V69.532H-302.341V83.3304V83.3335V111.718ZM-323.548 111.718H-303.907V83.3335V83.3304V69.532H-323.548V111.718ZM-292.523 105.934C-296.185 105.934 -299.164 102.955 -299.164 99.2937V81.9577C-299.164 78.296 -296.185 75.3171 -292.523 75.3171C-288.861 75.3171 -285.88 78.296 -285.88 81.9577L-285.883 99.2937C-285.883 102.955 -288.862 105.934 -292.523 105.934ZM-292.523 76.8788C-295.323 76.8788 -297.602 79.157 -297.602 81.957V99.2929C-297.602 102.093 -295.323 104.37 -292.523 104.37C-289.723 104.37 -287.445 102.093 -287.445 99.2929L-287.442 81.957C-287.442 79.157 -289.722 76.8788 -292.523 76.8788ZM-300.655 92.5616C-301.087 92.5616 -301.437 92.2124 -301.437 91.7804V89.4726C-301.437 89.0405 -301.087 88.6913 -300.655 88.6913C-300.224 88.6913 -299.874 89.0405 -299.874 89.4726V91.7804C-299.874 92.2124 -300.224 92.5616 -300.655 92.5616ZM-305.593 92.5616C-306.024 92.5616 -306.374 92.2124 -306.374 91.7804V89.4726C-306.374 89.0405 -306.024 88.6913 -305.593 88.6913C-305.161 88.6913 -304.812 89.0405 -304.812 89.4726V91.7804C-304.812 92.2124 -305.161 92.5616 -305.593 92.5616ZM-149.222 79.1718C-149.222 78.7398 -149.572 78.3905 -150.003 78.3905C-150.435 78.3905 -150.784 78.7398 -150.784 79.1718V87.721H-150.838C-150.912 86.0046 -152.32 84.6296 -154.055 84.6296H-157.635C-159.369 84.6296 -160.777 86.0046 -160.85 87.721H-189.63C-190.917 87.721 -192.091 88.2202 -192.966 89.0351V85.3577C-192.966 84.9257 -193.316 84.5765 -193.748 84.5765C-194.179 84.5765 -194.529 84.9257 -194.529 85.3577L-194.531 100.94C-194.531 101.358 -194.204 101.698 -193.792 101.721V102.078C-193.792 102.51 -193.443 102.859 -193.011 102.859C-192.58 102.859 -192.23 102.51 -192.23 102.078V101.721H-151.523V102.078C-151.523 102.51 -151.173 102.859 -150.741 102.859C-150.309 102.859 -149.96 102.51 -149.96 102.078V101.721C-149.548 101.7 -149.22 101.358 -149.22 100.94L-149.222 79.1718ZM-157.635 86.1921H-154.055C-153.184 86.1921 -152.467 86.8616 -152.393 87.7116H-159.295C-159.221 86.8624 -158.505 86.1921 -157.635 86.1921ZM-189.63 89.2835H-150.784V91.839H-192.877C-192.524 90.3749 -191.202 89.2835 -189.63 89.2835ZM-192.969 100.159V93.4023H-150.783L-150.781 100.159H-192.969ZM-83.5977 95.4117C-83.5977 94.9796 -83.9477 94.6304 -84.379 94.6304H-101.563V87.4116C-101.563 86.9796 -101.913 86.6304 -102.345 86.6304H-110.158C-110.59 86.6304 -110.939 86.9796 -110.939 87.4116V94.6304H-114.518C-114.078 93.246 -115.409 87.3945 -114.995 86.2851C-114.906 86.0452 -114.939 85.7773 -115.085 85.5663C-115.231 85.3554 -115.47 85.2304 -115.727 85.2304H-116.78V82.5624H-112.612C-112.384 82.5624 -112.169 82.4632 -112.02 82.2913C-111.872 82.1195 -111.806 81.8913 -111.839 81.6663L-113.314 71.6944C-113.37 71.3116 -113.699 71.0273 -114.087 71.0273H-121.036C-121.423 71.0273 -121.752 71.3108 -121.809 71.6944L-123.281 81.6663C-123.313 81.8913 -123.248 82.1195 -123.099 82.2913C-122.952 82.4632 -122.735 82.5624 -122.508 82.5624H-118.343V85.2304H-119.396C-119.652 85.2304 -119.892 85.3554 -120.038 85.5663C-120.184 85.7773 -120.217 86.0452 -120.127 86.2851C-119.713 87.3952 -121.042 93.246 -120.603 94.6304H-128.124C-128.556 94.6304 -128.905 94.9796 -128.905 95.4117V108.301C-128.905 108.718 -128.579 109.059 -128.168 109.081V109.44C-128.168 109.872 -127.819 110.221 -127.387 110.221C-126.955 110.221 -126.605 109.872 -126.605 109.44V109.083H-85.8985V109.44C-85.8985 109.872 -85.5493 110.221 -85.1172 110.221C-84.6852 110.221 -84.336 109.872 -84.336 109.44V109.082C-84.1438 109.072 -83.961 108.991 -83.8242 108.854C-83.6774 108.707 -83.5954 108.509 -83.5954 108.301L-83.5977 95.4117ZM-109.377 88.1929H-103.126V94.6304H-109.377V88.1929ZM-121.602 81.0007L-120.361 72.5913H-114.761L-113.517 81.0007H-121.602ZM-118.409 86.7937H-116.713C-116.866 88.0335 -115.595 93.614 -116.221 94.6304H-118.899C-119.525 93.6148 -118.255 88.0343 -118.409 86.7937ZM-107.036 107.52H-127.343V96.1929H-107.036V107.52ZM-105.473 107.52V96.1929H-85.1602L-85.1571 107.52H-105.473Z" fill="white"/>
</svg>
